/* XPM */
static char *_ce991287798430884cb1a30228c4370[] = {
/* columns rows colors chars-per-pixel */
"16 16 35 1 ",
"  c black",
". c #1C1030",
"X c #1C1030",
"o c None",
"O c #5A2F40",
"+ c #5C3446",
"@ c #9F5A5C",
"# c #170625",
"$ c #341B2E",
"% c #C3967A",
"& c #E6B495",
"* c #F7E3D2",
"= c #FFFEE8",
"- c #E28251",
"; c #FFC47B",
": c #FFE095",
"> c #7B433B",
", c #F3A770",
"< c #B86A4A",
"1 c #F2A66F",
"2 c #F3A76F",
"3 c #FFC87B",
"4 c #D28D6D",
"5 c #D64B0E",
"6 c #E9600E",
"7 c #F46C0E",
"8 c #D2390E",
"9 c #FFA30E",
"0 c #FF890E",
"q c #FFBC56",
"w c #D64D0E",
"e c #FFC14A",
"r c #B87364",
"t c #E6B698",
"y c white",
/* pixels */
"       O+@@@@   ",
"     #$%&**==O  ",
"    #-;:>;==**O ",
"   ##-,;-<==<*$ ",
"  #;@-,12-;=3$  ",
" #:4@567668*5#  ",
" #;@#858776&8#  ",
" #4##565906q5#  ",
" #4@#57we08=5#  ",
" #@r#50779780#  ",
"  #r@85867578#  ",
"  #@r56w90605#  ",
"   #@57we0795#  ",
"    #50779775#  ",
"    #@-,;*=*t#  ",
"  .Xo########X. "
};
