/* XPM */
static char *result[] = {
/* columns rows colors chars-per-pixel */
"32 32 8 1 ",
"  c black",
". c #603813",
"X c #BD7432",
"o c #E17E26",
"O c #989898",
"+ c white",
"@ c #9CDB43",
"& c #D6F264",
/* pixels */
"@@@@@@@@@@@@@@@@@@@@@@@@@@@@@@@@",
"@@@@@@@@@@@@@@@@@@@@@@@@&&@@@@@@",
"@@@@@@@@@@@@@@@@@@@@@@@@@@@@@@@@",
"@@@@@@@@&&@@@@@@@@@@@@@@@@@@@@@@",
"@@@@@@@@@@@@@@@@@@@@@@@@@@@@@@@@",
"@@@@@@@@@@@@@@@@@@@@@@@@@@@@@@@@",
"@@@@@@@@@@@@@@@@@@@@@@@@@@&&@@@@",
"@@@@@@@@@@@  @@@@@@  @@@@@@@@@@@",
"@@@@@@@@@@ Xo @@@@ oX @@@@@@@@@@",
"@@@@@@@@@@ X.o    o.X @@@@@@@@@@",
"&&@@@@@@@@ X..XooX..X @@@@@&&@@@",
"@@@@@@@@@  X.XooooX.X  @@@@@@@@@",
"@@@@@@@&& oXXXooooXXXo @@@@@@@@@",
"@@@@@@@@@@ X..XooX..o @@@@@@@@@@",
"@@@@@@@@@ oo.  XX  .oo @@@@&&@@@",
"@@@@@@@@@@ .o+ XX +o. @@@@@@@@@@",
"@@@@@&&@@@  o+ ++ +o  @@@@@@@@@@",
"@@@@@@@@@ .o o++++o o. @@@@@@@@@",
"@@@@@@@@ oooo O  O oooo @@@@@@@@",
"@@@@@@@@ oo o.    .o oo @@@@@@@@",
"@@@@@@@@ o  ooXXXXoo  o @@@@@@@@",
"@@@@@@@@ ++ oooXXooo ++ @@@@@@@@",
"@@@@@@@@ + oXXoXXoXXo + @@@@@@@@",
"@@@@@@@@@   oooooooo   @@@@@@@@@",
"@@@&&@@@&& o  o..o  o @@@@@@@@&&",
"@@@@@@@@@@  .o    o.  &&@@@@@@@@",
"@@&&@@@@@@@          @@@@@@@@@@@",
"@@@@@@@@@@@@@      @@@@@@@@@@@@@",
"@@@@@@@&&@@@@@@@@@@@@@@@@@@@@@@@",
"@@@@@@@@@@@@@@@@@@@@@@@@&&@@@@@@",
"@@@@@@@@@@@@@@@@@@@@@@@@@@@@@@@@",
"@@@@@@@@@@@@@@@&&@@@@@@@@@@@@@&&"
};