/* XPM */
static char *result[] = {
/* columns rows colors chars-per-pixel */
"32 32 8 1 ",
"  c black",
". c #603813",
"X c #BD7432",
"o c #E17E26",
"O c #989898",
"+ c white",
"& c #D6F264",
"@ c #9CDB43",
/* pixels */
"@@@@@@@@@@@&&@@@@@@@@@@@@@@@@@@@",
"@@@@@@@@@@@@@@@@@@&&@@@@@@@@@@@@",
"@@@@@@@@@@@@@@@@@@@@@@@@@@@@@@@@",
"@@@@&&@@@@@@@@@@@@@@@&&@@@@@@@@@",
"@@@@@@@@@@@&&@@@@@@@@@@@@@@@&&@@",
"@@@@@@@@@@@@@@ @@@@@@@@@@@@@@@@@",
"@@@@@@@@@@@@@ o @@@@@@@@@@@@@@@@",
"@@@@@@@@@@@@ X. @@@@@@@@&&@@@@@@",
"@@@@@@@&&@@ XX.. @@@@@@@@@@@@@@@",
"@@@@@@@@@@@ XXXoX @@@@@@@@@@@@@@",
"@@@@@@@@@@ ooXoooo @@@@@@@@@@@@@",
"@@@@@@@@@ XXX XoooX @@@@@@@@@@@@",
"@@@@@@@@@@ X XoX  XX @@@@@@@@@@@",
"@@@@@@@@@ XXX XX+ X++ @@@@@@@@@@",
"@@@@@@@@@ .o XXX+ X+  @@@@@@@@@@",
"@@@@@@@@@@ .o oXXXXOO @@@@@@@@@@",
"@@@@@@@@ @@ .o.XXXo  @@@@@@@@@@@",
"@&&@@@@ + @  Xooo.  @@@@@@@@@@@@",
"@@@@@@@ ++  Xo  ooXo @@@@@@@@@@@",
"@@@@@@@ oo  X oo oo. @@@@@@@@@@@",
"@@@@@@@@ X o  oo oXo @@@@&&@@@@@",
"@@@@@@@@ X .o +++ o. @@@@@@@@@@@",
"@@@@@@@@@ . . +++ . @@@@@@@@@@@@",
"@@@@@@@@@@@   ++     @@@@@@@@@@@",
"@@@@@@@@@@       o    @@@@@@&&@@",
"@@@@@@@@@@   oo..     @@@@@@@@@@",
"@@@&&@@@@@@          @@@@@@@@@@@",
"@@@@@@@@@@@@@      @@@@@@@@@@@@@",
"@@@@@@@@@&&@@@@@@@@@@@@@@@@@@@@@",
"@@@@@@@@@@@@@@@@@@@@@@@@@@@@@@@@",
"@@@@@@@@@@@@@@@@@@@@@@@@@&&@@@@@",
"@@&&@@@@@@@@@@@@@@@@@@@@@@@@@@@@"
};