/* XPM */
static char *enemy_animated[] = {
/* columns rows colors chars-per-pixel */
"32 32 76 1 ",
"  c #541F1F",
". c #681D1D",
"X c #79390A",
"o c #422424",
"O c #472828",
"+ c #4D2C2C",
"@ c #752121",
"# c #61492C",
"$ c #73482B",
"% c #79482B",
"& c #674D30",
"* c #513A49",
"= c #5C4251",
"- c #861D1D",
"; c #851F1F",
": c #971A1A",
"> c #9E1D1D",
", c #8B2B08",
"< c #9C3E0D",
"1 c #8D2415",
"2 c #A52B1F",
"3 c #BE3B1E",
"4 c #952323",
"5 c #9A2828",
"6 c #943C2E",
"7 c #A62020",
"8 c #AA2222",
"9 c #AD2323",
"0 c #B42626",
"q c #8A4C10",
"w c #905211",
"e c #9C5F15",
"r c #A76B19",
"t c #814B2E",
"y c #9F562F",
"u c #975E2C",
"i c #AA482B",
"p c #B0422B",
"a c #A25128",
"s c #B05730",
"d c #9F6D2F",
"f c #A07731",
"g c #A4763C",
"h c #B0753B",
"j c #BD763C",
"k c #C05134",
"l c #C6573E",
"z c #C4793F",
"x c #A75D41",
"c c #94677C",
"v c #CB7C42",
"b c #CA7F48",
"n c #C07953",
"m c #BE8420",
"M c #F48500",
"N c #FAC923",
"B c #95835D",
"V c #D3984B",
"C c #D98A54",
"Z c #CFA34C",
"A c #FB9766",
"S c #D4A870",
"D c #DEB076",
"F c #E9BA6D",
"G c #E7B87B",
"H c #E2D15D",
"J c #E8D867",
"K c #EADA6A",
"L c #EEDE71",
"P c #996D80",
"I c #F1BF81",
"U c #FAC786",
"Y c #A19AC6",
"T c #ABACC4",
"R c #9CDB43",
"! c #D6F264",
/* pixels */
"RRR!RRRRRRRRRRRRRRRRRRRRRRR!!RRR",
"RRRRRRRRRRRRRRRRRRRRRRRRRRRRRRRR",
"RRRRRRRRRRRRRRRRRRRRRRReRRRRRRRR",
"RRRRRR!!RRRRRRRRRRRRRwRqRRmRRRRR",
"RRRRRRRRRRRRRRRRRRRRRR<MeqRRRRRR",
"RRRRRRRRRRRRRR!!RRRRRR<,RRRRRRRR",
"R!!RRRRRRRRRRRRRRRRRRRXXwrRRRRRR",
"RRRRRNRRRRRRRRRRRRRRRXRRRRRRRRRR",
"RRRRRRRRRRRRRRRRRRRRURRRRRRRRRRR",
"RRRRRRRRCRRRRRAARRRuDRRRRRRRRRRR",
"RRRRRRRRn3RRyRIGRRXaxRRRRRRRRRRR",
"RRRRRRRRRf0RRh6SVX29dRRRRRRRRRRR",
"RRRRRRRRR:>0+o$.&57:RRRRRRRRRRRR",
"RRRRRRRRRR:74@o+O7:RRRRRRRR!!RRR",
"RRRRRRRRRRR:>7-#gRRRRRRRRRRRRRRR",
"RRRRRRRRRRRRR:9zvRRRRRRRRRRRRRRR",
"RRRRR!!RRRRRX19vvRRRRRRRRRRRRRRR",
"RRRRRRRRRRRXRR7vkRRRRRRRRRR!!RRR",
"RRRRRRRRRRXRRR-PTcRRRRRRRRRRRRRR",
"RRRRRRRRRRRRRR =YRRRRRRRRRRRRRRR",
"RRRRRRRRRRRRRHb%*BRRRRRRRRRRRRRR",
"RRRRRRRRRRRKLJlZtpRRRRRRRRRRRRRR",
"RRRRRRRRRRKJJF9vv0RRRRRRRRRRRRRR",
"RRRR!!RRRRRRR0>vv7RRRRRRRRRRRRRR",
"RRRRRRRRRRRR80:vv:RRRRRRRRRRRRRR",
"RRRRRRRRRRR:0>:zj:RRRRRRRRRRRRRR",
"RRRRRRRRRRR:9:j:j:RRRRRR!!RRRRRR",
"RRRRRRRRRR:::ijisRRRRRRRRRRRRRRR",
"RRR!!!RRRRRRRRRRRRRRRRRRRRRRRRRR"
"RRRRRRRRRRRRRRRRRRRRRRRRRRRRRRRR"
"RRRRRRRRRRRRRRRRR!!RRRRRRR!RRRRR"
"RRRRRRRRRRRRRRRRRRRRRRRRRR!RRRRR"
};
