/* XPM */
static char *enemy[] = {
/* columns rows colors chars-per-pixel */
"32 32 172 2 ",
"   c #3E2121",
".  c #5F1F1F",
"X  c #691C1C",
"o  c #7F330D",
"O  c #7D340C",
"+  c #79390A",
"@  c #7D3D0B",
"#  c #7D3E0B",
"$  c #7E3E0C",
"%  c #432525",
"&  c #462727",
"*  c #472727",
"=  c #4B2020",
"-  c #4F2121",
";  c #4C3027",
":  c #523926",
">  c #53362A",
",  c #553A29",
"<  c #682422",
"1  c #772222",
"2  c #7B2A24",
"3  c #762929",
"4  c #5F4433",
"5  c #6E5631",
"6  c #593E4A",
"7  c #695572",
"8  c #6F5C7B",
"9  c #971A1A",
"0  c #951D19",
"q  c #9A1B1B",
"w  c #9B1B1B",
"e  c #9C1C1C",
"r  c #9D1C1C",
"t  c #9E1D1D",
"y  c #BB0202",
"u  c #BF0000",
"i  c #A31F1F",
"p  c #BC1E14",
"a  c #883A0B",
"s  c #8E2315",
"d  c #8B2614",
"f  c #802518",
"g  c #98261D",
"h  c #8A311F",
"j  c #8B2E23",
"k  c #993727",
"l  c #973825",
"z  c #A82121",
"x  c #AA2222",
"c  c #AB2222",
"v  c #AD2323",
"b  c #AF2424",
"n  c #AD2D25",
"m  c #B02525",
"M  c #B42626",
"N  c #A43220",
"B  c #A33825",
"V  c #AB3F28",
"C  c #B93E2D",
"Z  c #BB3E2E",
"A  c #C10300",
"S  c #C40600",
"D  c #C70900",
"F  c #C90C00",
"G  c #CC0F00",
"H  c #CF1300",
"J  c #C91A04",
"K  c #D01400",
"L  c #D21600",
"P  c #D31700",
"I  c #C12909",
"U  c #D22504",
"Y  c #D82C04",
"T  c #D32D0A",
"R  c #E12800",
"E  c #E93100",
"W  c #81420D",
"Q  c #88490F",
"!  c #8A4B0F",
"~  c #98530C",
"^  c #844913",
"/  c #8B4D10",
"(  c #8D4E10",
")  c #975A14",
"_  c #995C14",
"`  c #925D1E",
"'  c #A06417",
"]  c #A66A18",
"[  c #A86C19",
"{  c #AA6F1A",
"}  c #9C4F27",
"|  c #964428",
" . c #935427",
".. c #8F5E35",
"X. c #945D35",
"o. c #AB4B2C",
"O. c #AC4E2D",
"+. c #A84E31",
"@. c #A84D34",
"#. c #9E612C",
"$. c #9B6928",
"%. c #A96736",
"&. c #BB6637",
"*. c #BE6B3A",
"=. c #AA7B35",
"-. c #D3500F",
";. c #DE5E0F",
":. c #E44E00",
">. c #E06C16",
",. c #C05435",
"<. c #C15736",
"1. c #C25A37",
"2. c #CA6E32",
"3. c #C36A3B",
"4. c #C76C3C",
"5. c #C86F3E",
"6. c #D96036",
"7. c #925059",
"8. c #BA7A52",
"9. c #C85E41",
"0. c #C86541",
"q. c #C47147",
"w. c #AA933B",
"e. c #AB963C",
"r. c #EF8113",
"t. c #EA8D17",
"y. c #F28814",
"u. c #DC8C2F",
"i. c #EBAB3F",
"p. c #F3CE26",
"a. c #FBDB26",
"s. c #F0D42D",
"d. c #FFFC2E",
"f. c #B68442",
"g. c #B79945",
"h. c #BC8A54",
"j. c #BEAF48",
"k. c #C28340",
"l. c #CB8644",
"z. c #CD8745",
"x. c #CE8845",
"c. c #C88D47",
"v. c #D49E4D",
"b. c #C9895E",
"n. c #C49257",
"m. c #D09157",
"M. c #C88C60",
"N. c #CD9967",
"B. c #FB9867",
"V. c #DFB176",
"C. c #E7B16C",
"Z. c #E6BF68",
"A. c #F7DA4E",
"S. c #E2D15D",
"D. c #DECF68",
"F. c #F4CE6C",
"G. c #E4D360",
"H. c #E7D665",
"J. c #E0D168",
"K. c #EEDE70",
"L. c #EFDF72",
"P. c #F0E073",
"I. c #968BBC",
"U. c #F1BF81",
"Y. c #F4C282",
"T. c #F4C283",
"R. c #FAC786",
"E. c #A7A6C3",
"W. c #ABADC4",
"Q. c #ADADCA",
"!. c #9CDB43",
"&& c #D6F264",
/* pixels */
"!.!.!.!.!.!.!.!.!.!.!.!.!.!.!.!.!.!.!.!.&&&&!.!.!.!.!.!.!.!.!.!.",
"!.!.!.!.!.R P F !.!.!.!.!.!.!.!.!.!.!.!.!.!.!.!.!.!.!.!.!.!.!.!.",
"!.&&&&!.K K !.!.!.!.&&&&!.!.!.!.!.!.!.!.!.!.!.!.!.!.!.!.!.!.!.!.",
"!.!.!.!.!.;.E !.!.!.!.!.!.!.!.!.!.!.!.!.!.!.!.!.!.&&&&!.!.!.!.!.",
"!.!.!.!.!.y t.Y !.!.!.!.!.!.!.!.!.!.!.!.!.!.!.!.!.!.!.!.!.!.!.!.",
"!.!.!.!.A H y.-.!.!.R.R.!.!.!.{ !.!.!.{ !.!.!.!.!.!.!.!.!.!.!.!.",
"!.!.!.D S r.a.s.y V.B.B.!.!.!.Q !.!.!.W !.!.!.!.!.!.!.!.!.!.!.!.",
"!.!.!.K U p.d.u.| b.R.T.!.v.!.+ / ' ! !.!.!.!.!.!.&&&&!.!.!.!.!.",
"!.!.!.!.T A.F.6.2.%.M.N.@.!.[ !.~ :.! !.] !.!.!.!.!.!.!.!.!.!.!.",
"!.!.!.!.J i.C.p < , ..2 X.> $ _ a I # ) # !.!.!.!.!.!.!.!.!.!.!.",
"!.!.!.!.!.>.0.N = - % * * 3 !.!.# ! !.!.!.!.!.!.!.!.!.!.!.!.!.!.",
"!.!.!.!.!.j.j c.r i .   ; +.!.!.!.+ !.!.!.!.!.!.!.!.!.!.!.!.!.!.",
"!.!.!.!.!.#. .n e 9 v f.k 4.!.!.T.Y.R.!.!.!.!.!.!.!.!.!.!.&&&&!.",
"!.!.!.!.!.!.g q !.q i z.Z 5.&.h 8.h.!.!.!.!.!.!.!.!.!.!.!.!.!.!.",
"!.!.&&&&!.!.!.!.!.!.q l.Z 5.} f !.+ !.!.!.!.!.!.!.!.!.!.!.!.!.!.",
"!.!.!.!.!.!.!.!.!.!.9 3.1.*.!.!.!.+ !.!.!.!.!.!.!.!.!.!.!.!.!.!.",
"!.!.!.!.!.!.!.!.!.!.1 7.E.W.!.!.!.+ !.!.!.!.&&&&!.!.!.!.!.!.!.!.",
"!.!.!.!.!.!.!.!.!.L.4 6 I.Q.J.!.!.+ !.!.!.!.!.!.!.!.!.!.!.!.!.!.",
"!.!.!.!.!.!.!.!.G.S.n.X 8 7 w.!.!.+ !.!.!.!.!.!.!.!.!.!.!.!.!.!.",
"!.!.!.!.!.!.!.!.P.S.m.l : 5 } J.!.+ !.!.!.!.!.!.!.!.!.!.!.!.!.!.",
"!.!.!.!.!.!.!.!.H.P.m.O.1.x.V e. .+ !.!.!.!.!.!.!.!.!.!.!.!.!.!.",
"!.!.!.!.!.!.!.!.K.K.q.O.,.x.z g.$.@ !.!.!.!.!.!.!.!.!.!.!.!.!.!.",
"!.!.!.!.!.!.!.!.Z.0.z O.1.z.m =.^ !.!.!.!.!.!.!.!.!.&&&&!.!.!.!.",
"!.!.!.!.!.!.!.!.M M z O.,.z.z r + !.!.!.&&&&!.!.!.!.!.!.!.!.!.!.",
"!.!.!.!.!.!.!.!.M M z O.,.z.r q O !.!.!.!.!.!.!.!.!.!.!.!.!.!.!.",
"!.!.!.!.!.!.!.!.m M z O.1.4.B 0 a !.!.!.!.!.!.!.!.!.!.!.!.!.!.!.",
"!.!.!.!.!.!.!.b w z z O.,.M k.s + !.!.!.!.!.!.!.!.!.!.!.!.!.!.!.",
"!.!.!.!.!.!.!.z q z r O.1.M k.s + !.!.!.!.!.!.!.!.!.!.!.&&&&!.!.",
"!.!.!.!.&&&&!.q 9 9 9 O.1.M k.s + !.!.!.!.!.!.!.!.!.!.!.!.!.!.!.",
"!.!.!.!.!.!.!.!.9 !.9 o.,.M !.d + !.!.&&&&!.!.!.!.!.!.!.!.!.!.!.",
"!.!.!.!.!.!.!.!.!.!.!.!.!.!.!.!.+ !.!.!.!.!.!.!.!.!.!.!.!.!.!.!.",
"!.&&&&!.!.!.!.!.!.!.!.!.!.!.!.!.!.!.!.!.!.!.!.!.!.!.!.!.!.!.&&&&"
};
